<svg width="34" height="35" viewBox="0 0 34 35" fill="none" xmlns="http://www.w3.org/2000/svg">
<path d="M12.901 7.94533C13.7482 5.39324 17.1737 5.31595 18.1781 7.71345L18.2631 7.94678L19.4063 11.3885C19.6683 12.1777 20.0917 12.9 20.6479 13.5066C21.2042 14.1131 21.8803 14.5898 22.6307 14.9045L22.9381 15.0226L26.2814 16.198C28.7606 17.0701 28.8357 20.5964 26.5081 21.6303L26.2814 21.7178L22.9381 22.8947C22.1711 23.1642 21.4692 23.6 20.8797 24.1726C20.2902 24.7452 19.8269 25.4413 19.5211 26.2139L19.4063 26.5289L18.2645 29.972C17.4173 32.5241 13.9918 32.6014 12.9888 30.2053L12.901 29.972L11.7592 26.5303C11.4973 25.7408 11.074 25.0182 10.5178 24.4114C9.96157 23.8046 9.28537 23.3277 8.53483 23.0128L8.22883 22.8947L4.8855 21.7193C2.40492 20.8472 2.32983 17.321 4.65883 16.2885L4.8855 16.198L8.22883 15.0226C8.99558 14.7529 9.69722 14.3171 10.2864 13.7445C10.8756 13.1719 11.3387 12.4759 11.6444 11.7035L11.7592 11.3885L12.901 7.94533ZM15.5828 8.88741L14.4409 12.3291C14.042 13.5326 13.393 14.6322 12.5391 15.5513C11.6852 16.4703 10.647 17.1867 9.49675 17.6505L9.14258 17.7832L5.79925 18.9587L9.14258 20.1341C10.3118 20.5448 11.3799 21.2129 12.2727 22.0918C13.1655 22.9708 13.8614 24.0396 14.312 25.2237L14.4409 25.5882L15.5828 29.0299L16.7246 25.5882C17.1235 24.3847 17.7725 23.2851 18.6264 22.3661C19.4803 21.447 20.5185 20.7306 21.6687 20.2668L22.0229 20.1355L25.3663 18.9587L22.0229 17.7832C20.8537 17.3726 19.7856 16.7045 18.8928 15.8255C18 14.9465 17.3041 13.8777 16.8535 12.6937L16.726 12.3291L15.5828 8.88741ZM26.9161 2.91699C27.1811 2.91699 27.4408 2.99352 27.6657 3.13789C27.8906 3.28225 28.0716 3.48866 28.1883 3.73366L28.2562 3.90428L28.7521 5.40053L30.207 5.91095C30.4726 6.00384 30.7054 6.17581 30.876 6.40506C31.0466 6.63431 31.1472 6.91052 31.1651 7.19869C31.183 7.48686 31.1174 7.77402 30.9766 8.02377C30.8358 8.27351 30.6261 8.47461 30.3742 8.60158L30.207 8.67158L28.7535 9.18199L28.2577 10.6797C28.1673 10.953 28.0001 11.1926 27.7773 11.368C27.5545 11.5435 27.2862 11.6469 27.0062 11.6651C26.7263 11.6834 26.4474 11.6157 26.2049 11.4707C25.9624 11.3256 25.7671 11.1097 25.6439 10.8503L25.5759 10.6797L25.0801 9.18345L23.6252 8.67303C23.3596 8.58015 23.1267 8.40818 22.9562 8.17893C22.7856 7.94968 22.685 7.67347 22.6671 7.3853C22.6492 7.09712 22.7148 6.80997 22.8556 6.56022C22.9964 6.31047 23.2061 6.10937 23.458 5.98241L23.6252 5.91241L25.0787 5.40199L25.5745 3.90428C25.67 3.61615 25.8508 3.36603 26.0914 3.18897C26.3319 3.01191 26.6203 2.91681 26.9161 2.91699Z" fill="#EDE0AB"/>
</svg>
