<svg width="1280" height="411" viewBox="0 0 1280 411" fill="none" xmlns="http://www.w3.org/2000/svg">
<path d="M-68.2109 37.782C-43.7934 33.5812 -5.06524 29.5735 42.6657 26.9591M1348.21 37.782C1309.49 32.9418 1271.66 29.3931 1234.88 26.9591M42.6657 26.9591C85.7965 198.064 42.4316 388.434 286.861 388.434C530.706 388.434 513.594 277.207 548.638 66.7024M42.6657 26.9591C179.089 19.4865 389.056 23.395 548.638 66.7024M548.638 66.7024L729.59 62.3439M729.59 62.3439C768.133 247.261 740.327 377.739 984.171 377.739C1208.76 377.739 1195.93 296.458 1234.88 26.9591M729.59 62.3439C844.187 36.099 1022.08 12.877 1234.88 26.9591" stroke="white" stroke-opacity="0.3" stroke-width="44"/>
</svg>
