<svg width="62" height="65" viewBox="0 0 62 65" fill="none" xmlns="http://www.w3.org/2000/svg">
<path d="M26.6879 0.346065C25.2963 0.659665 23.8459 1.16926 22.8659 1.67886C20.4355 2.89406 17.6523 5.40286 16.2019 7.63726L15.4179 8.85246L14.0459 9.08766C3.20707 10.9105 -2.86893 22.6901 1.83507 32.7449L2.22707 33.5681L1.81547 34.6069C0.97267 36.7433 0.71787 38.0761 0.71787 40.7221C0.71787 43.4857 1.09027 45.2889 2.08987 47.5625C3.40307 50.5221 5.91187 53.4621 8.67547 55.2653C11.2823 56.9509 15.2807 58.2641 17.8483 58.2641C18.7107 58.2641 18.8675 58.3425 19.3575 58.9697C20.8471 60.8709 24.1987 63.0857 26.6879 63.8501C28.7851 64.4773 31.3331 64.7321 33.1559 64.5165C38.3499 63.8501 42.1131 61.6745 45.1511 57.6369C46.0135 56.4609 46.2095 56.3041 46.7779 56.3041C47.6599 56.3041 50.7763 55.2653 52.1091 54.5401C54.6179 53.1485 56.5779 51.4237 58.0479 49.2481C61.3799 44.3481 61.9287 38.5465 59.6159 32.7841L59.0279 31.3141L59.4983 30.1381C60.4587 27.7665 60.6743 26.5905 60.6743 23.5721C60.6743 20.5145 60.3803 19.0053 59.3219 16.6141C56.9111 11.1261 51.0311 7.02966 44.9551 6.57886L43.5047 6.46126L42.5051 5.40286C40.4863 3.26646 37.1935 1.30646 34.3319 0.542065C32.6659 0.0912647 28.1971 -0.0263353 26.6879 0.346065ZM34.1359 4.12886C35.7431 4.69726 36.8603 5.26566 37.9383 6.06926L38.8987 6.77486L37.7423 7.22566C36.2919 7.81366 35.9783 7.97046 33.9399 9.14646C33.0187 9.67566 31.7839 10.3617 31.1959 10.6949C30.6079 11.0085 29.0595 11.9101 27.7659 12.6745C26.4723 13.4389 25.2375 14.1641 25.0219 14.2817C24.8063 14.3993 23.8655 14.9481 22.9247 15.5165C21.9643 16.0653 20.4747 16.9473 19.5927 17.4569C18.6911 17.9861 17.7307 18.5545 17.4367 18.7505L16.8879 19.1033V17.2805C16.9075 13.2429 18.1423 10.2049 20.9255 7.42166C22.7287 5.63806 25.1787 4.22686 27.3543 3.77606C28.7655 3.46246 32.9207 3.67806 34.1359 4.12886ZM47.2679 10.4597C49.6003 11.0869 51.2663 12.0865 53.1479 13.9681C55.9899 16.8101 57.0679 19.2013 57.2247 22.9841C57.3031 25.0617 56.9895 27.8841 56.6955 27.8841C56.6367 27.8841 56.1467 27.4333 55.6175 26.8845C53.8143 25.0421 52.0111 23.8465 45.9939 20.5341C44.4847 19.6913 42.8971 18.8093 42.4659 18.5741C42.0347 18.3389 41.2507 17.8881 40.7019 17.5941C40.1727 17.2805 38.7615 16.4965 37.5659 15.8301C36.3899 15.1441 35.0571 14.3993 34.6259 14.1641C34.1947 13.9289 33.7635 13.6937 33.6851 13.6349C33.5479 13.5565 34.7435 12.5961 34.9787 12.5961C35.0179 12.5961 35.7431 12.2041 36.6055 11.7141C39.0751 10.3029 41.1723 9.81286 44.1319 9.96966C45.0531 10.0285 46.4643 10.2441 47.2679 10.4597ZM13.6539 13.3213C13.5755 13.6349 13.4775 17.2413 13.4187 21.3769L13.3207 28.8641L11.5763 30.3537C10.0671 31.6669 9.83187 31.9413 9.83187 32.4705C9.83187 33.3133 9.75347 33.2349 14.6339 37.3117C19.3575 41.2513 20.8471 42.3293 22.9835 43.3289C25.7275 44.5833 28.1187 45.0341 31.5879 44.8773C36.0763 44.6813 39.1731 43.3877 43.6027 39.8793L44.9355 38.8405L44.8767 40.5457L44.8179 42.2705L41.9955 43.8973C40.4471 44.7989 39.1535 45.5241 39.1143 45.5241C39.0947 45.5241 38.3695 45.9553 37.5267 46.4649C34.6455 48.2289 32.4307 49.4441 32.0779 49.4441C31.8819 49.4441 30.4315 48.6993 28.8635 47.7977C27.2955 46.8961 25.3943 45.8377 24.6299 45.4261C22.9443 44.5245 20.9647 43.3877 19.1419 42.2901C18.3971 41.8393 17.2799 41.2121 16.6919 40.8789C13.6735 39.2129 9.65547 36.8021 8.71467 36.0965C6.83307 34.6853 5.20627 32.2549 4.32427 29.5501C3.93227 28.4133 3.87347 27.7469 3.85387 25.6301C3.85387 22.8469 4.03027 21.8865 4.99067 19.8481C6.38227 16.8297 8.79307 14.5561 11.9487 13.2625C13.4971 12.6353 13.8303 12.6353 13.6539 13.3213ZM32.2935 16.9277C33.4695 17.5941 35.8411 18.9269 37.5659 19.8873C39.2907 20.8673 41.2703 21.9845 41.9759 22.3961C42.6815 22.7881 44.4847 23.8073 45.9939 24.6501C47.5031 25.4929 49.0123 26.3357 49.3651 26.5317C51.4623 27.7077 53.0695 29.0797 54.4023 30.8045C56.2251 33.1761 57.0679 35.2537 57.4599 38.3113C57.6559 39.8597 57.6559 40.4085 57.3815 41.8981C56.5779 46.4257 53.1479 50.6005 48.9535 52.1685C48.3263 52.4037 47.7775 52.5605 47.7579 52.5409C47.7187 52.5017 47.8559 51.8157 48.0715 51.0121C48.3851 49.7185 48.4439 48.7581 48.4439 42.6821V35.8025L49.5611 34.8421C50.1687 34.2933 50.8351 33.7445 51.0311 33.6073C51.2663 33.4309 51.3839 33.0977 51.3839 32.6077C51.3839 31.9413 51.2663 31.7649 50.5019 31.1377C50.0315 30.7457 49.5219 30.3145 49.3847 30.1773C48.8359 29.6677 44.3475 25.9437 42.7599 24.7285C39.1731 21.9257 35.5667 20.4949 31.5879 20.2989C26.5311 20.0441 22.4543 21.5533 17.8483 25.3753L16.9271 26.1201L16.7899 24.7285C16.6331 23.2389 16.6527 23.2193 17.6719 22.6313C18.9263 21.9453 26.1587 17.7509 27.8639 16.7513C28.7851 16.2025 29.6671 15.7517 29.8435 15.7517C30.0003 15.7321 31.1175 16.2809 32.2935 16.9277ZM33.9791 24.0425C36.4291 24.7089 37.4287 25.1597 39.3887 26.4729C41.0743 27.6097 46.4447 32.1961 46.4643 32.5293C46.4839 32.8233 41.2115 37.4685 39.6827 38.5073C38.0755 39.6049 36.2331 40.5065 34.5279 41.0161C32.7051 41.5845 29.0007 41.6433 27.2759 41.1533C26.6879 40.9769 25.9823 40.7809 25.7079 40.7025C24.9631 40.4869 22.4151 39.1345 21.6115 38.5269C20.6707 37.8017 17.3779 35.0381 16.3979 34.1365C15.9667 33.7249 15.3983 33.2349 15.1239 33.0193C14.6731 32.6469 14.6535 32.5881 14.9671 32.3529C15.2807 32.0981 16.9663 30.6281 18.5343 29.2365C21.5723 26.5513 24.6691 24.7481 27.3739 24.0621C28.7655 23.7093 32.7051 23.7093 33.9791 24.0425ZM8.67547 40.3301C10.9295 41.6629 25.4531 49.9733 27.0799 50.8553C27.6679 51.1885 28.2363 51.5217 28.3147 51.6001C28.5303 51.7765 25.7667 53.3641 24.2967 53.9129C22.6895 54.5205 20.5139 54.7949 18.0443 54.6969C16.1823 54.6381 15.5159 54.5205 14.1047 54.0109C9.38107 52.3449 6.22547 49.2089 4.69667 44.6225C4.32427 43.4857 4.24587 42.8585 4.24587 40.7221C4.24587 39.3109 4.30467 37.9389 4.40267 37.6253L4.53987 37.0961L5.97067 38.3309C6.77427 39.0169 7.96987 39.9185 8.67547 40.3301ZM44.6415 50.1105C44.0143 53.1093 42.8579 55.2457 40.7215 57.3429C38.2127 59.7929 35.7823 60.8121 32.1563 60.9689C30.2551 61.0277 29.6279 60.9885 28.3343 60.6161C26.6683 60.1653 24.9631 59.3225 23.9243 58.4797L23.2579 57.9309L24.9239 57.4213C26.5311 56.9313 28.5499 55.8141 38.3499 50.0909C39.6435 49.3265 41.6231 48.1701 42.7599 47.5233L44.8179 46.3277L44.8767 47.5233C44.9159 48.1701 44.7983 49.3265 44.6415 50.1105Z" fill="black"/>
<path d="M29.2364 25.6101C28.6484 25.7277 27.8056 26.0217 27.3744 26.2177C26.2376 26.7665 24.7872 28.2953 24.1796 29.6085C23.7092 30.5885 23.6504 30.9609 23.6504 32.6857C23.6504 34.4301 23.7092 34.7633 24.1992 35.7433C25.8064 39.0557 29.5892 40.6433 32.9016 39.4281C36.2336 38.1933 38.0564 35.1945 37.6448 31.6077C37.194 27.6289 33.1172 24.7281 29.2364 25.6101ZM33.7052 28.6677C34.2344 29.0009 34.3324 29.1577 34.3324 29.8241C34.3324 30.4317 34.2148 30.6865 33.8228 31.0001C33.2348 31.4705 32.98 31.5097 32.294 31.1961C31.608 30.8825 31.2748 30.0005 31.5688 29.2753C31.7844 28.7657 32.3724 28.3149 32.8624 28.2953C32.98 28.2757 33.3524 28.4521 33.7052 28.6677Z" fill="black"/>
</svg>
