<svg width="42" height="41" viewBox="0 0 42 41" fill="none" xmlns="http://www.w3.org/2000/svg">
<path d="M21 6.83301C22.8565 6.83301 24.637 7.55295 25.9497 8.83444C27.2625 10.1159 28 11.854 28 13.6663C28 15.4787 27.2625 17.2167 25.9497 18.4982C24.637 19.7797 22.8565 20.4997 21 20.4997C19.1435 20.4997 17.363 19.7797 16.0503 18.4982C14.7375 17.2167 14 15.4787 14 13.6663C14 11.854 14.7375 10.1159 16.0503 8.83444C17.363 7.55295 19.1435 6.83301 21 6.83301ZM21 10.2497C20.0717 10.2497 19.1815 10.6096 18.5251 11.2504C17.8687 11.8911 17.5 12.7602 17.5 13.6663C17.5 14.5725 17.8687 15.4415 18.5251 16.0823C19.1815 16.723 20.0717 17.083 21 17.083C21.9283 17.083 22.8185 16.723 23.4749 16.0823C24.1313 15.4415 24.5 14.5725 24.5 13.6663C24.5 12.7602 24.1313 11.8911 23.4749 11.2504C22.8185 10.6096 21.9283 10.2497 21 10.2497ZM21 22.208C25.6725 22.208 35 24.4801 35 29.0413V34.1663H7V29.0413C7 24.4801 16.3275 22.208 21 22.208ZM21 25.4538C15.8025 25.4538 10.325 27.948 10.325 29.0413V30.9205H31.675V29.0413C31.675 27.948 26.1975 25.4538 21 25.4538Z" fill="#CFCFCF"/>
</svg>
